<svg width="30" height="30" viewBox="0 0 30 30" fill="none" xmlns="http://www.w3.org/2000/svg">
<g clip-path="url(#clip0_2_8)">
<path d="M19.475 2.10001H8.97498V12.6H19.475V2.10001Z" fill="white"/>
<path d="M25.335 4.66501L4.66498 25.335C10.38 19.635 19.635 19.635 25.335 25.335C27.99 22.695 29.625 19.035 29.625 14.985C29.625 10.965 27.99 7.30501 25.335 4.66501ZM17.1 29.475C16.755 29.52 16.41 29.565 16.05 29.595C16.395 29.565 16.755 29.52 17.1 29.475Z" fill="#5A8350"/>
<path d="M25.14 4.47C25.08 4.41 25.005 4.35 24.945 4.275C24.795 4.125 24.63 3.99 24.465 3.855C24.435 3.825 24.39 3.795 24.36 3.765C24.27 3.69 24.18 3.615 24.09 3.54C23.94 3.42 23.805 3.315 23.655 3.21C23.46 3.06 23.25 2.925 23.055 2.79C22.95 2.715 22.845 2.655 22.755 2.595C22.44 2.4 22.125 2.22 21.81 2.055C21.705 1.995 21.6 1.95 21.495 1.89C21.285 1.785 21.06 1.68 20.85 1.59C20.55 1.455 20.235 1.335 19.935 1.23C19.785 1.185 19.65 1.125 19.5 1.08C19.41 1.05 19.335 1.035 19.245 1.005C18.63 0.824998 18 0.674998 17.355 0.569998C17.265 0.554998 17.19 0.539998 17.115 0.524998C16.935 0.494998 16.77 0.479998 16.59 0.464998C16.41 0.449998 16.245 0.434998 16.065 0.419998C15.915 0.404998 15.75 0.404998 15.585 0.389998C15.51 0.389998 15.435 0.389998 15.36 0.389998C15.075 0.374998 14.79 0.389998 14.52 0.389998C14.43 0.389998 14.355 0.389998 14.265 0.404998C14.16 0.404998 14.055 0.419998 13.95 0.419998C13.845 0.419998 13.725 0.434998 13.62 0.449998C13.5 0.464998 13.38 0.464998 13.275 0.494998C13.185 0.509998 13.11 0.509998 13.02 0.524998C12.975 0.524998 12.93 0.539998 12.885 0.539998C12.78 0.554998 12.69 0.569998 12.585 0.584998C12.465 0.599998 12.36 0.629998 12.24 0.644998C12.15 0.659998 12.06 0.674998 11.97 0.704998C11.91 0.719998 11.865 0.734998 11.805 0.734998C11.715 0.749998 11.67 0.749998 11.625 0.764998C11.565 0.779998 11.505 0.794998 11.43 0.809998C11.355 0.824998 11.295 0.839998 11.22 0.869998C11.19 0.869998 11.145 0.884998 11.1 0.899998C11.04 0.914998 10.98 0.929998 10.92 0.944998C10.845 0.959998 10.785 0.989998 10.725 1.005C10.68 1.02 10.65 1.035 10.605 1.05C10.515 1.08 10.425 1.11 10.35 1.14C10.32 1.14 10.305 1.155 10.275 1.17C10.17 1.2 10.08 1.245 9.97501 1.275C9.85501 1.305 9.75001 1.35 9.64501 1.395C9.48001 1.455 9.31501 1.53 9.15001 1.605C8.98501 1.68 8.82001 1.755 8.67001 1.83C8.58001 1.875 8.49001 1.92 8.40001 1.965C8.31001 2.01 8.22001 2.055 8.13001 2.1C5.58001 3.465 3.48001 5.565 2.11501 8.115C2.07001 8.205 2.02501 8.295 1.98001 8.385C1.93501 8.475 1.89001 8.565 1.84501 8.655C1.77001 8.82 1.69501 8.97 1.62001 9.135C1.54501 9.3 1.48501 9.465 1.41001 9.63C1.35001 9.75 1.30501 9.855 1.26001 9.975C1.23001 10.065 1.20001 10.155 1.17001 10.245C1.15501 10.305 1.12501 10.365 1.11001 10.425C1.09501 10.47 1.08001 10.53 1.06501 10.575C1.03501 10.65 1.02001 10.725 0.990014 10.8C0.975014 10.83 0.975014 10.86 0.960014 10.89C0.930014 10.98 0.900014 11.085 0.885014 11.175C0.885014 11.19 0.885014 11.205 0.870014 11.22C0.840014 11.31 0.825014 11.4 0.795014 11.49C0.780014 11.535 0.765014 11.58 0.765014 11.625C0.750014 11.7 0.735014 11.76 0.720014 11.835C0.705014 11.865 0.705014 11.895 0.690014 11.94C0.675014 12.045 0.645014 12.135 0.630014 12.24C0.600014 12.36 0.585014 12.465 0.570014 12.585C0.555014 12.705 0.525014 12.81 0.510014 12.93C0.480014 13.11 0.465014 13.275 0.450014 13.455C0.435014 13.635 0.420014 13.8 0.405014 13.98C0.390014 14.13 0.390014 14.295 0.375014 14.46C0.375014 14.535 0.375014 14.61 0.375014 14.685C0.360014 14.97 0.375014 15.255 0.375014 15.525C0.375014 15.615 0.375014 15.69 0.390014 15.78C0.390014 15.885 0.405014 15.99 0.405014 16.11C0.405014 16.215 0.420014 16.335 0.435014 16.44C0.450014 16.545 0.450014 16.65 0.465014 16.77C0.465014 16.785 0.465014 16.785 0.465014 16.8C0.480014 16.875 0.480014 16.95 0.495014 17.025C0.510014 17.085 0.510014 17.16 0.525014 17.22C0.525014 17.25 0.540014 17.28 0.540014 17.31C0.555014 17.4 0.570014 17.505 0.585014 17.595C0.585014 17.61 0.585014 17.625 0.585014 17.64C0.600014 17.745 0.630014 17.865 0.645014 17.97C0.660014 18.06 0.690014 18.165 0.705014 18.255C1.32001 21 2.71501 23.445 4.63501 25.365L25.335 4.665C25.275 4.59 25.2 4.53 25.14 4.47ZM17.565 9.825C16.155 11.265 13.845 11.265 12.405 9.825C10.98 8.4 10.98 6.075 12.405 4.665C13.83 3.255 16.155 3.24 17.565 4.665C18.975 6.09 18.99 8.415 17.565 9.825Z" fill="#79A36E"/>
<path d="M25.335 25.35C24.18 26.505 22.83 27.465 21.345 28.185C21.03 28.335 20.7 28.485 20.37 28.605C20.265 28.65 20.145 28.695 20.04 28.725C19.95 28.755 19.86 28.785 19.785 28.815C19.725 28.83 19.665 28.86 19.605 28.875C19.56 28.89 19.5 28.905 19.455 28.92C19.38 28.95 19.305 28.965 19.23 28.995C19.2 29.01 19.17 29.01 19.14 29.025C19.05 29.055 18.945 29.085 18.855 29.1C18.84 29.1 18.825 29.1 18.81 29.115C18.72 29.145 18.63 29.16 18.54 29.19C18.495 29.205 18.45 29.22 18.405 29.22C18.33 29.235 18.27 29.25 18.195 29.265C18.165 29.28 18.135 29.28 18.09 29.295C17.985 29.31 17.895 29.34 17.79 29.355C17.67 29.385 17.565 29.4 17.445 29.415C17.325 29.43 17.22 29.46 17.1 29.475C16.755 29.52 16.41 29.565 16.05 29.595C15.9 29.61 15.735 29.61 15.57 29.625C15.495 29.625 15.42 29.625 15.345 29.625C15.06 29.64 14.775 29.625 14.505 29.625C14.415 29.625 14.34 29.625 14.25 29.61C14.145 29.61 14.04 29.595 13.92 29.595C13.815 29.595 13.695 29.58 13.59 29.565C13.485 29.55 13.38 29.55 13.26 29.535C13.245 29.535 13.245 29.535 13.23 29.535C13.155 29.52 13.08 29.52 13.005 29.505C12.945 29.49 12.87 29.49 12.81 29.475C12.78 29.475 12.75 29.46 12.72 29.46C12.63 29.445 12.525 29.43 12.435 29.415C12.42 29.415 12.405 29.415 12.39 29.415C12.285 29.4 12.165 29.37 12.06 29.355C9.20998 28.77 6.64498 27.36 4.66498 25.365C10.38 19.635 19.62 19.635 25.335 25.35Z" fill="#FFF4C7"/>
<path d="M12.71 5.95501C11.99 6.67501 11.99 7.83001 12.71 8.55001C13.43 9.27001 14.585 9.27001 15.305 8.55001C16.025 7.83001 16.025 6.67501 15.305 5.95501C14.57 5.23501 13.415 5.23501 12.71 5.95501Z" fill="#222222"/>
</g>
<defs>
<clipPath id="clip0_2_8">
<rect width="30" height="30" fill="white"/>
</clipPath>
</defs>
</svg>
